<svg xmlns="http://www.w3.org/2000/svg" width="640" height="360" viewBox="0 0 640 360" role="img" aria-labelledby="title desc">
  <title id="title">Illustration générique de plat</title>
  <desc id="desc">Une assiette colorée avec légumes, céréales et herbes.</desc>
  <rect width="640" height="360" rx="24" fill="#f5efe3"/>
  <ellipse cx="320" cy="205" rx="210" ry="115" fill="#fff" stroke="#d7c8af" stroke-width="12"/>
  <ellipse cx="320" cy="205" rx="160" ry="82" fill="#e9d7a2"/>
  <circle cx="260" cy="180" r="39" fill="#d96845"/>
  <circle cx="344" cy="222" r="43" fill="#6e9f58"/>
  <path d="M392 155c50 20 64 70 22 98-37-8-67-43-56-81z" fill="#e7a83f"/>
  <path d="M205 238c34-25 70-18 91 13-20 31-62 42-95 18z" fill="#8c5f3d"/>
  <path d="M300 128c8 22 5 42-8 61M324 122c-2 25 8 43 25 56" stroke="#40784d" stroke-width="9" stroke-linecap="round"/>
</svg>
